<?xml version="1.0" encoding="utf-8"?>
<!-- Generator: Adobe Illustrator 16.0.0, SVG Export Plug-In . SVG Version: 6.00 Build 0)  -->
<!DOCTYPE svg PUBLIC "-//W3C//DTD SVG 1.1//EN" "http://www.w3.org/Graphics/SVG/1.1/DTD/svg11.dtd">
<svg version="1.1" id="Layer_1" xmlns="http://www.w3.org/2000/svg" xmlns:xlink="http://www.w3.org/1999/xlink" x="0px" y="0px"
	 width="2500px" height="2500px" viewBox="-231 0 2500 2500" enable-background="new -231 0 2500 2500" xml:space="preserve">
<path fill="#999999" d="M1124.472,217.598C1288.726,1.105,1517.078,0.05,1517.078,0.05s33.967,203.539-129.211,399.612
	c-174.233,209.363-372.273,175.104-372.273,175.104S978.406,410.11,1124.472,217.598z M1036.484,717.345
	c84.501,0,241.33-116.155,445.465-116.155c351.382,0,489.615,250.032,489.615,250.032s-270.359,138.229-270.359,473.637
	c0,378.368,336.795,508.766,336.795,508.766s-235.433,662.654-553.436,662.654c-146.057,0-259.608-98.427-413.501-98.427
	c-156.829,0-312.459,102.099-413.821,102.099C366.856,2499.958,0,1871.361,0,1366.073c0-497.132,310.521-757.919,601.775-757.919
	C791.118,608.154,938.05,717.345,1036.484,717.345L1036.484,717.345z"/>
</svg>
